<svg xmlns="http://www.w3.org/2000/svg" viewBox="0 0 320 200" role="img"><defs></defs><rect width="320" height="200" fill="#F2E3C4"/><g transform="translate(120 40)"><path d="M0 10 H56 L50 150 H6Z" fill="#E6A624"/><path d="M0 10 H56 L54 40 H2Z" fill="#FFF6E2"/><circle cx="14" cy="10" r="10" fill="#FFF6E2"/><circle cx="30" cy="6" r="12" fill="#FFF6E2"/><circle cx="46" cy="10" r="10" fill="#FFF6E2"/><circle cx="20" cy="80" r="2" fill="#FBD36A"/><circle cx="34" cy="100" r="2" fill="#FBD36A"/><circle cx="28" cy="120" r="2" fill="#FBD36A"/><circle cx="40" cy="70" r="2" fill="#FBD36A"/></g><g transform="translate(220 60)"><rect x="-16" y="0" width="32" height="120" rx="6" fill="#5A3A28"/><rect x="-8" y="-24" width="16" height="30" fill="#5A3A28"/><rect x="-16" y="40" width="32" height="44" fill="#F5EEDC"/><circle cx="0" cy="62" r="10" fill="#8A6A4E"/><circle cx="0" cy="60" r="6" fill="#E7A38C"/></g><path d="M0 -10 L2 -4 L8 -7 L5 -1 L10 1 L4 3 L6 9 L1 5 L0 11 L-1 5 L-6 9 L-4 3 L-10 1 L-5 -1 L-8 -7 L-2 -4Z" fill="#B7352B" transform="translate(60 40) rotate(20) scale(2)"/><path d="M0 -10 L2 -4 L8 -7 L5 -1 L10 1 L4 3 L6 9 L1 5 L0 11 L-1 5 L-6 9 L-4 3 L-10 1 L-5 -1 L-8 -7 L-2 -4Z" fill="#E0762F" transform="translate(280 170) rotate(-20) scale(1.5)"/></svg>