<svg xmlns="http://www.w3.org/2000/svg" viewBox="0 0 320 200" role="img"><defs></defs><rect width="320" height="200" fill="#FBF0D8"/><path d="M160 20 V70" stroke="#5A3A28" stroke-width="4"/><ellipse cx="120" cy="40" rx="40" ry="12" fill="#3D6B3F" transform="rotate(-20 120 40)"/><ellipse cx="200" cy="40" rx="40" ry="12" fill="#4E8C3A" transform="rotate(20 200 40)"/><ellipse cx="140" cy="95" rx="18" ry="22" fill="#F0A33A"/><ellipse cx="135" cy="88" rx="5" ry="6" fill="#F8C878"/><ellipse cx="180" cy="95" rx="18" ry="22" fill="#F0A33A"/><ellipse cx="175" cy="88" rx="5" ry="6" fill="#F8C878"/><ellipse cx="120" cy="135" rx="18" ry="22" fill="#F0A33A"/><ellipse cx="115" cy="128" rx="5" ry="6" fill="#F8C878"/><ellipse cx="160" cy="140" rx="18" ry="22" fill="#F0A33A"/><ellipse cx="155" cy="133" rx="5" ry="6" fill="#F8C878"/><ellipse cx="200" cy="135" rx="18" ry="22" fill="#F0A33A"/><ellipse cx="195" cy="128" rx="5" ry="6" fill="#F8C878"/><ellipse cx="140" cy="175" rx="18" ry="22" fill="#F0A33A"/><ellipse cx="135" cy="168" rx="5" ry="6" fill="#F8C878"/><ellipse cx="180" cy="175" rx="18" ry="22" fill="#F0A33A"/><ellipse cx="175" cy="168" rx="5" ry="6" fill="#F8C878"/></svg>