<svg xmlns="http://www.w3.org/2000/svg" viewBox="0 0 320 200" role="img"><defs><linearGradient id="s" x1="0" y1="0" x2="0" y2="1"><stop offset="0" stop-color="#FBE2C9"/><stop offset="1" stop-color="#F3F6F1"/></linearGradient></defs><rect width="320" height="200" fill="url(#s)"/><path d="M0 120 Q100 40 200 80 T320 70 V200 H0Z" fill="#6E8F55"/><g transform="translate(170 50)"><rect x="-70" y="0" width="140" height="70" fill="#F5EEDC"/><rect x="-62" y="8" width="16" height="12" fill="#8DB4C2"/><rect x="-62" y="28" width="16" height="12" fill="#8DB4C2"/><rect x="-62" y="48" width="16" height="12" fill="#8DB4C2"/><rect x="-38" y="8" width="16" height="12" fill="#8DB4C2"/><rect x="-38" y="28" width="16" height="12" fill="#8DB4C2"/><rect x="-38" y="48" width="16" height="12" fill="#8DB4C2"/><rect x="-14" y="8" width="16" height="12" fill="#8DB4C2"/><rect x="-14" y="28" width="16" height="12" fill="#8DB4C2"/><rect x="-14" y="48" width="16" height="12" fill="#8DB4C2"/><rect x="10" y="8" width="16" height="12" fill="#8DB4C2"/><rect x="10" y="28" width="16" height="12" fill="#8DB4C2"/><rect x="10" y="48" width="16" height="12" fill="#8DB4C2"/><rect x="34" y="8" width="16" height="12" fill="#8DB4C2"/><rect x="34" y="28" width="16" height="12" fill="#8DB4C2"/><rect x="34" y="48" width="16" height="12" fill="#8DB4C2"/><rect x="58" y="8" width="16" height="12" fill="#8DB4C2"/><rect x="58" y="28" width="16" height="12" fill="#8DB4C2"/><rect x="58" y="48" width="16" height="12" fill="#8DB4C2"/><rect x="-76" y="-6" width="152" height="8" fill="#5A5A5A"/></g><path d="M50 200 q10 -30 0 -50 M70 200 q12 -36 0 -60 M90 200 q8 -26 0 -44" stroke="#fff" stroke-width="5" fill="none" opacity=".8" stroke-linecap="round"/><g transform="translate(280 150) scale(1.2)"><rect x="-2" y="0" width="4" height="16" fill="#5A3A28"/><circle cx="0" cy="-6" r="12" fill="#C8452F"/><circle cx="-9" cy="0" r="8" fill="#C8452F"/><circle cx="9" cy="0" r="8" fill="#C8452F"/></g><g transform="translate(130 160) scale(1)"><rect x="-2" y="0" width="4" height="16" fill="#5A3A28"/><circle cx="0" cy="-6" r="12" fill="#E0762F"/><circle cx="-9" cy="0" r="8" fill="#E0762F"/><circle cx="9" cy="0" r="8" fill="#E0762F"/></g></svg>