<svg xmlns="http://www.w3.org/2000/svg" viewBox="0 0 320 200" role="img"><defs><linearGradient id="s" x1="0" y1="0" x2="0" y2="1"><stop offset="0" stop-color="#E3F1D8"/><stop offset="1" stop-color="#F3F6F1"/></linearGradient></defs><rect width="320" height="200" fill="url(#s)"/><path d="M40 200 V110 Q160 40 280 110 V200Z" fill="#D9ECEA" stroke="#2B6E78" stroke-width="3"/><path d="M80 200 V120 M120 200 V96 M160 200 V88 M200 200 V96 M240 200 V120" stroke="#2B6E78" stroke-width="2" opacity=".5"/><g fill="#3D6B3F"><ellipse cx="80" cy="190" rx="40" ry="14"/><ellipse cx="240" cy="190" rx="44" ry="14"/></g><g transform="translate(120 110) scale(1.1)"><path d="M0 0 C-20 -26 -34 -4 -18 6 C-30 14 -16 28 0 6Z" fill="#2B6E78"/><path d="M0 0 C20 -26 34 -4 18 6 C30 14 16 28 0 6Z" fill="#2B6E78"/><circle cx="-14" cy="-6" r="4" fill="#E9B825"/><circle cx="14" cy="-6" r="4" fill="#E9B825"/><rect x="-1.5" y="-10" width="3" height="22" rx="1.5" fill="#1E2A24"/></g><g transform="translate(210 90) scale(0.9)"><path d="M0 0 C-20 -26 -34 -4 -18 6 C-30 14 -16 28 0 6Z" fill="#E0762F"/><path d="M0 0 C20 -26 34 -4 18 6 C30 14 16 28 0 6Z" fill="#E0762F"/><circle cx="-14" cy="-6" r="4" fill="#1E2A24"/><circle cx="14" cy="-6" r="4" fill="#1E2A24"/><rect x="-1.5" y="-10" width="3" height="22" rx="1.5" fill="#1E2A24"/></g><g transform="translate(170 150) scale(0.7)"><path d="M0 0 C-20 -26 -34 -4 -18 6 C-30 14 -16 28 0 6Z" fill="#B7352B"/><path d="M0 0 C20 -26 34 -4 18 6 C30 14 16 28 0 6Z" fill="#B7352B"/><circle cx="-14" cy="-6" r="4" fill="#F6D24A"/><circle cx="14" cy="-6" r="4" fill="#F6D24A"/><rect x="-1.5" y="-10" width="3" height="22" rx="1.5" fill="#1E2A24"/></g></svg>