<svg xmlns="http://www.w3.org/2000/svg" viewBox="0 0 320 200" role="img"><defs><linearGradient id="s" x1="0" y1="0" x2="0" y2="1"><stop offset="0" stop-color="#E0EEF7"/><stop offset="1" stop-color="#F3F6F1"/></linearGradient></defs><rect width="320" height="200" fill="url(#s)"/><path d="M0 30 Q160 60 320 30" stroke="#5A3A28" stroke-width="2" fill="none"/><g transform="translate(30 41.4765625)"><ellipse rx="11" ry="15" fill="#E24B3B"/><rect x="-7" y="-17" width="14" height="3" fill="#1E2A24"/><rect x="-7" y="14" width="14" height="3" fill="#1E2A24"/></g><g transform="translate(80 50.5)"><ellipse rx="11" ry="15" fill="#E8B923"/><rect x="-7" y="-17" width="14" height="3" fill="#1E2A24"/><rect x="-7" y="14" width="14" height="3" fill="#1E2A24"/></g><g transform="translate(130 55.2265625)"><ellipse rx="11" ry="15" fill="#E24B3B"/><rect x="-7" y="-17" width="14" height="3" fill="#1E2A24"/><rect x="-7" y="14" width="14" height="3" fill="#1E2A24"/></g><g transform="translate(190 55.2265625)"><ellipse rx="11" ry="15" fill="#E8B923"/><rect x="-7" y="-17" width="14" height="3" fill="#1E2A24"/><rect x="-7" y="14" width="14" height="3" fill="#1E2A24"/></g><g transform="translate(240 50.5)"><ellipse rx="11" ry="15" fill="#E24B3B"/><rect x="-7" y="-17" width="14" height="3" fill="#1E2A24"/><rect x="-7" y="14" width="14" height="3" fill="#1E2A24"/></g><g transform="translate(290 41.4765625)"><ellipse rx="11" ry="15" fill="#E8B923"/><rect x="-7" y="-17" width="14" height="3" fill="#1E2A24"/><rect x="-7" y="14" width="14" height="3" fill="#1E2A24"/></g><g transform="translate(70 130)"><circle cy="-22" r="9" fill="#E7B89A"/><path d="M-12 -12 L12 -12 L16 30 H-16Z" fill="#2B6E78"/><path d="M-12 -6 L-26 -20 M12 -6 L26 -20" stroke="#E7B89A" stroke-width="5" stroke-linecap="round"/></g><g transform="translate(130 130)"><circle cy="-22" r="9" fill="#E7B89A"/><path d="M-12 -12 L12 -12 L16 30 H-16Z" fill="#B7352B"/><path d="M-12 -6 L-26 -20 M12 -6 L26 -20" stroke="#E7B89A" stroke-width="5" stroke-linecap="round"/></g><g transform="translate(190 130)"><circle cy="-22" r="9" fill="#E7B89A"/><path d="M-12 -12 L12 -12 L16 30 H-16Z" fill="#7E4E9A"/><path d="M-12 -6 L-26 -20 M12 -6 L26 -20" stroke="#E7B89A" stroke-width="5" stroke-linecap="round"/></g><g transform="translate(250 130)"><circle cy="-22" r="9" fill="#E7B89A"/><path d="M-12 -12 L12 -12 L16 30 H-16Z" fill="#3D6B3F"/><path d="M-12 -6 L-26 -20 M12 -6 L26 -20" stroke="#E7B89A" stroke-width="5" stroke-linecap="round"/></g><rect x="0" y="160" width="320" height="40" fill="#C9B991"/></svg>