<svg xmlns="http://www.w3.org/2000/svg" viewBox="0 0 320 200" role="img"><defs></defs><rect width="320" height="200" fill="#E4EFE4"/><path d="M40 180 Q140 120 280 40" stroke="#5A3A28" stroke-width="4" fill="none"/><ellipse cx="90" cy="150" rx="12" ry="6" fill="#4E8C3A" transform="rotate(-30 90 150)"/><ellipse cx="110" cy="130" rx="12" ry="6" fill="#4E8C3A" transform="rotate(40 110 130)"/><ellipse cx="150" cy="120" rx="12" ry="6" fill="#4E8C3A" transform="rotate(-40 150 120)"/><ellipse cx="170" cy="100" rx="12" ry="6" fill="#4E8C3A" transform="rotate(30 170 100)"/><ellipse cx="210" cy="90" rx="12" ry="6" fill="#4E8C3A" transform="rotate(-30 210 90)"/><ellipse cx="230" cy="70" rx="12" ry="6" fill="#4E8C3A" transform="rotate(40 230 70)"/><ellipse cx="70" cy="168" rx="12" ry="6" fill="#4E8C3A" transform="rotate(30 70 168)"/><circle cx="185" cy="140" r="5" fill="#7BAA3C"/><circle cx="186" cy="139" r="1.5" fill="#B7D46E"/><circle cx="195" cy="148" r="5" fill="#7BAA3C"/><circle cx="196" cy="147" r="1.5" fill="#B7D46E"/><circle cx="178" cy="152" r="5" fill="#7BAA3C"/><circle cx="179" cy="151" r="1.5" fill="#B7D46E"/><circle cx="190" cy="160" r="5" fill="#7BAA3C"/><circle cx="191" cy="159" r="1.5" fill="#B7D46E"/><circle cx="200" cy="138" r="5" fill="#7BAA3C"/><circle cx="201" cy="137" r="1.5" fill="#B7D46E"/><circle cx="172" cy="140" r="5" fill="#7BAA3C"/><circle cx="173" cy="139" r="1.5" fill="#B7D46E"/><circle cx="205" cy="152" r="5" fill="#7BAA3C"/><circle cx="206" cy="151" r="1.5" fill="#B7D46E"/><g transform="translate(90 70)"><rect x="-24" y="-10" width="48" height="50" rx="4" fill="#B0855A"/><path d="M-24 0 H24 M-24 22 H24" stroke="#5A3A28" stroke-width="3"/></g></svg>