<svg xmlns="http://www.w3.org/2000/svg" viewBox="0 0 320 200" role="img"><defs><linearGradient id="s" x1="0" y1="0" x2="0" y2="1"><stop offset="0" stop-color="#FBE3C8"/><stop offset="1" stop-color="#F3F6F1"/></linearGradient></defs><rect width="320" height="200" fill="url(#s)"/><path d="M0 120 Q60 80 120 110 T240 100 T320 115 V200 H0Z" fill="#6E8F55"/><path d="M0 140 Q80 115 170 135 T320 130 V200 H0Z" fill="#4F7040"/><path d="M150 200 Q170 150 150 120 Q140 100 160 90" stroke="#D9C6A5" stroke-width="26" fill="none" stroke-linecap="round"/><path d="M40 200 Q90 160 60 120" stroke="#7FC4CC" stroke-width="12" fill="none"/><path d="M52 150 h60 v6 h-60z" fill="#B7352B"/><path d="M58 150 v14 M106 150 v14" stroke="#7E1F1B" stroke-width="3"/><g transform="translate(230 110) scale(1.3)"><rect x="-2" y="0" width="4" height="16" fill="#5A3A28"/><circle cx="0" cy="-6" r="12" fill="#C8452F"/><circle cx="-9" cy="0" r="8" fill="#C8452F"/><circle cx="9" cy="0" r="8" fill="#C8452F"/></g><g transform="translate(270 140) scale(1.2)"><rect x="-2" y="0" width="4" height="16" fill="#5A3A28"/><circle cx="0" cy="-6" r="12" fill="#E0762F"/><circle cx="-9" cy="0" r="8" fill="#E0762F"/><circle cx="9" cy="0" r="8" fill="#E0762F"/></g><g transform="translate(20 100) scale(1.1)"><rect x="-2" y="0" width="4" height="16" fill="#5A3A28"/><circle cx="0" cy="-6" r="12" fill="#E9A13B"/><circle cx="-9" cy="0" r="8" fill="#E9A13B"/><circle cx="9" cy="0" r="8" fill="#E9A13B"/></g><g transform="translate(200 150) scale(1)"><rect x="-2" y="0" width="4" height="16" fill="#5A3A28"/><circle cx="0" cy="-6" r="12" fill="#B7352B"/><circle cx="-9" cy="0" r="8" fill="#B7352B"/><circle cx="9" cy="0" r="8" fill="#B7352B"/></g><path d="M0 -10 L2 -4 L8 -7 L5 -1 L10 1 L4 3 L6 9 L1 5 L0 11 L-1 5 L-6 9 L-4 3 L-10 1 L-5 -1 L-8 -7 L-2 -4Z" fill="#B7352B" transform="translate(120 40) rotate(10) scale(0.6)"/><path d="M0 -10 L2 -4 L8 -7 L5 -1 L10 1 L4 3 L6 9 L1 5 L0 11 L-1 5 L-6 9 L-4 3 L-10 1 L-5 -1 L-8 -7 L-2 -4Z" fill="#E0762F" transform="translate(180 30) rotate(50) scale(0.6)"/><path d="M0 -10 L2 -4 L8 -7 L5 -1 L10 1 L4 3 L6 9 L1 5 L0 11 L-1 5 L-6 9 L-4 3 L-10 1 L-5 -1 L-8 -7 L-2 -4Z" fill="#E9B825" transform="translate(250 50) rotate(-20) scale(0.6)"/><path d="M0 -10 L2 -4 L8 -7 L5 -1 L10 1 L4 3 L6 9 L1 5 L0 11 L-1 5 L-6 9 L-4 3 L-10 1 L-5 -1 L-8 -7 L-2 -4Z" fill="#B7352B" transform="translate(90 70) rotate(70) scale(0.6)"/></svg>