<svg xmlns="http://www.w3.org/2000/svg" viewBox="0 0 320 200" role="img"><defs><linearGradient id="s" x1="0" y1="0" x2="0" y2="1"><stop offset="0" stop-color="#DDE9F4"/><stop offset="1" stop-color="#F3F6F1"/></linearGradient></defs><rect width="320" height="200" fill="url(#s)"/><rect x="0" y="150" width="320" height="50" fill="#B9C3C7"/><rect x="0" y="140" width="320" height="12" fill="#8E999D"/><rect x="20" y="152" width="14" height="48" fill="#8E999D"/><rect x="84" y="152" width="14" height="48" fill="#8E999D"/><rect x="148" y="152" width="14" height="48" fill="#8E999D"/><rect x="212" y="152" width="14" height="48" fill="#8E999D"/><rect x="276" y="152" width="14" height="48" fill="#8E999D"/><g transform="translate(30 86)"><rect x="0" y="0" width="260" height="52" rx="8" fill="#E9EDEE"/><rect x="0" y="30" width="260" height="8" fill="#C8243B"/><rect x="14" y="10" width="34" height="16" rx="3" fill="#35505A"/><rect x="64" y="10" width="34" height="16" rx="3" fill="#35505A"/><rect x="114" y="10" width="34" height="16" rx="3" fill="#35505A"/><rect x="164" y="10" width="34" height="16" rx="3" fill="#35505A"/><rect x="214" y="10" width="34" height="16" rx="3" fill="#35505A"/></g><path d="M0 60 L60 20 L110 50 L170 10 L240 45 L320 20 V86 H0Z" fill="#6E8F55" opacity=".6"/></svg>